<svg xmlns="http://www.w3.org/2000/svg" viewBox="0 0 35.38 35.38"><defs><style>.cls-1{fill:#fff;opacity:0.8;}</style></defs><g id="Layer_2" data-name="Layer 2"><g id="Layer_1-2" data-name="Layer 1"><path d="M35.38,17.69A17.69,17.69,0,1,1,17.69,0,17.69,17.69,0,0,1,35.38,17.69Z"/><path class="cls-1" d="M20.78,18.07,15.9,20.48c-.19.1-.84,0-.84-.25v-5c0-.22.66-.36.85-.25l4.66,2.54c.2.11.4.39.21.5Zm6.38-2.91a4.25,4.25,0,0,0-4.24-4.25H12.05A4.26,4.26,0,0,0,7.8,15.16v5.06a4.26,4.26,0,0,0,4.25,4.25H22.92a4.25,4.25,0,0,0,4.24-4.25V15.16Z"/></g></g></svg>