<svg xmlns="http://www.w3.org/2000/svg" viewBox="0 0 35.38 35.38"><defs><style>.cls-1{fill:#fff;opacity:0.8;}</style></defs><g id="Layer_2" data-name="Layer 2"><g id="Layer_1-2" data-name="Layer 1"><path d="M35.38,17.69A17.69,17.69,0,1,1,17.69,0,17.69,17.69,0,0,1,35.38,17.69Z"/><path class="cls-1" d="M27.47,11.63a8.36,8.36,0,0,1-1.95.56c.31-.06.77-.62.95-.85a3.46,3.46,0,0,0,.65-1.19.08.08,0,0,0,0-.1.14.14,0,0,0-.11,0A10,10,0,0,1,24.7,11a.15.15,0,0,1-.16,0l-.2-.2A4.18,4.18,0,0,0,23.22,10a4,4,0,0,0-1.72-.28,4.19,4.19,0,0,0-1.63.46,4.32,4.32,0,0,0-1.32,1.08,3.94,3.94,0,0,0-.82,3.23c0,.1,0,.11-.08.1a12.35,12.35,0,0,1-7.95-4c-.1-.11-.15-.11-.22,0a4,4,0,0,0,.69,4.76,4.91,4.91,0,0,0,.48.43,4.07,4.07,0,0,1-1.53-.43C9,15.26,9,15.3,9,15.4a2.48,2.48,0,0,0,0,.46,4.08,4.08,0,0,0,2.51,3.25,3,3,0,0,0,.51.15,4.43,4.43,0,0,1-1.51,0c-.1,0-.15,0-.1.14a4.21,4.21,0,0,0,3.16,2.64c.14,0,.28,0,.43.06,0,0,0,0,0,0a5,5,0,0,1-2.16,1.14,7.63,7.63,0,0,1-3.28.42c-.17,0-.21,0-.26,0s0,.07.05.12a6.85,6.85,0,0,0,.69.4,10.13,10.13,0,0,0,2.19.88,11.66,11.66,0,0,0,11.33-2.65,11.9,11.9,0,0,0,3.14-8.67c0-.13.14-.2.23-.26A7.59,7.59,0,0,0,27.44,12a.49.49,0,0,0,.11-.3v0c0-.05,0,0-.08,0Z"/></g></g></svg>