<svg xmlns="http://www.w3.org/2000/svg" viewBox="0 0 35.38 35.38"><defs><style>.cls-1{fill:#fff;opacity:0.8;}</style></defs><g id="Layer_2" data-name="Layer 2"><g id="Layer_1-2" data-name="Layer 1"><path d="M35.38,17.69A17.69,17.69,0,1,0,14.93,35.17V22.8H10.44V17.69h4.49v-3.9c0-4.43,2.64-6.88,6.68-6.88a26.79,26.79,0,0,1,4,.35v4.35H23.34a2.55,2.55,0,0,0-2.88,2.76v3.32h4.9l-.78,5.11H20.46V35.17A17.7,17.7,0,0,0,35.38,17.69Z"/><path class="cls-1" d="M24.58,22.8l.78-5.11h-4.9V14.37a2.55,2.55,0,0,1,2.88-2.76h2.23V7.26a26.79,26.79,0,0,0-4-.35c-4,0-6.68,2.45-6.68,6.88v3.9H10.44V22.8h4.49V35.17a18.31,18.31,0,0,0,5.53,0V22.8Z"/></g></g></svg>