<svg xmlns="http://www.w3.org/2000/svg" viewBox="0 0 35.38 35.38"><defs><style>.cls-1,.cls-2{fill:#fff;}.cls-1{opacity:0.8;}.cls-2{fill-rule:evenodd;}</style></defs><g id="Layer_2" data-name="Layer 2"><g id="Layer_1-2" data-name="Layer 1"><path d="M35.38,17.69A17.69,17.69,0,1,1,17.69,0,17.69,17.69,0,0,1,35.38,17.69Z"/><path class="cls-1" d="M13.94,24.16l.35.21a8.31,8.31,0,1,0-2.83-2.81l.21.35L10.85,25l3.09-.83ZM8.13,27.7l1.48-5.5a10.19,10.19,0,1,1,4.06,4L8.13,27.7Z"/><path class="cls-2" d="M22.28,18.7a1.69,1.69,0,0,0-1.46-.32c-.38.15-.62.74-.86,1a.37.37,0,0,1-.47.11,6.63,6.63,0,0,1-3.29-2.82.41.41,0,0,1,.05-.55,2.3,2.3,0,0,0,.6-1A2.2,2.2,0,0,0,16.58,14a2.71,2.71,0,0,0-.85-1.28,1.16,1.16,0,0,0-1.26.19,2.57,2.57,0,0,0-.89,2,2.74,2.74,0,0,0,.08.64A5.62,5.62,0,0,0,14.28,17c.2.34.41.67.64,1a10,10,0,0,0,2.8,2.59,8.24,8.24,0,0,0,1.75.83,3.81,3.81,0,0,0,2,.32,2.43,2.43,0,0,0,1.84-1.37,1.13,1.13,0,0,0,.09-.7c-.1-.48-.75-.76-1.14-1Z"/></g></g></svg>