<svg xmlns="http://www.w3.org/2000/svg" viewBox="0 0 122.78 88.92"><defs><style>.cls-1{fill:#fff;}</style></defs><g id="Layer_2" data-name="Layer 2"><g id="Layer_1-2" data-name="Layer 1"><rect class="cls-1" x="2.7" y="1.71" width="117.47" height="85"/><path d="M7,0H115.78a7.07,7.07,0,0,1,7,7.05V81.81a7,7,0,0,1-1.22,4,2.66,2.66,0,0,1-1.32,1.46,7,7,0,0,1-4.51,1.65H7a7.07,7.07,0,0,1-7-7V7.05A7.07,7.07,0,0,1,7,0ZM6.7,78.84,43.48,40.62,6.7,9.54ZM49,45.39,9.72,83.45h103L75.17,45.39l-11,9.21h0a2.7,2.7,0,0,1-3.45,0Zm31.6-4.84,35.46,38.6V9.2ZM10.16,5.41,62.34,47.7,112.22,5.41Z"/></g></g></svg>