<svg xmlns="http://www.w3.org/2000/svg" viewBox="0 0 18.7 11.94"><defs><style>.cls-1{fill:#fff;}</style></defs><g id="Layer_2" data-name="Layer 2"><g id="Layer_1-2" data-name="Layer 1"><path class="cls-1" d="M14.76,11.5a.9.9,0,0,1-.77.44.88.88,0,0,1-.44-.12A13,13,0,0,0,6.68,10.3a16.24,16.24,0,0,0-3.55.47.89.89,0,1,1-.47-1.71,17.94,17.94,0,0,1,3.92-.53,17.18,17.18,0,0,1,3.78.27,12.88,12.88,0,0,1,4.08,1.49.89.89,0,0,1,.32,1.21Z"/><path class="cls-1" d="M16.4,8.08A1,1,0,0,1,15,8.46,15.53,15.53,0,0,0,6.84,6.65a20.75,20.75,0,0,0-4.21.56,1,1,0,1,1-.56-2,22.11,22.11,0,0,1,4.65-.63,21.07,21.07,0,0,1,4.48.32A15.06,15.06,0,0,1,16,6.65a1,1,0,0,1,.37,1.43Z"/><path class="cls-1" d="M17.42,5a1.26,1.26,0,0,1-.65-.17C10.21,1,1.71,3.24,1.63,3.27A1.29,1.29,0,0,1,.94.79,26.2,26.2,0,0,1,6.65,0a25.11,25.11,0,0,1,5.49.39,18.72,18.72,0,0,1,5.93,2.17,1.28,1.28,0,0,1,.46,1.76A1.3,1.3,0,0,1,17.42,5Z"/></g></g></svg>