<svg xmlns="http://www.w3.org/2000/svg" viewBox="0 0 94.95 95.11"><defs><style>.cls-1{fill:#fefefe;}.cls-2{fill:#ad6d68;}.cls-3{fill:#d9d0cd;}.cls-4{fill:#e6e6e6;}.cls-5{fill:#5a3023;}.cls-6{fill:#d59251;}</style></defs><g id="Layer_2" data-name="Layer 2"><g id="Layer_3" data-name="Layer 3"><path class="cls-1" d="M.11,4.92,0,5C0,4.93,0,4.9.11,4.92Z"/><path class="cls-2" d="M75,64.54c1.22.16,2.4.5,3.61.75a39,39,0,0,1,4,.95A12.12,12.12,0,0,1,91.11,76q1.1,5.37,2.2,10.74l1.57,7.78c.13.61.13.61-.5.61H3.14c-.46,0-.58-.08-.48-.56Q4.47,85.81,6.24,77a15.89,15.89,0,0,1,1.68-5.12,11.56,11.56,0,0,1,1.84-2.45.89.89,0,0,1,.52.28L14,72.66l9.94,7.83A31.51,31.51,0,0,0,35.85,86.4a31.12,31.12,0,0,0,5.51.86,30.11,30.11,0,0,0,7.64-.4c.2,0,.41,0,.61-.08A32.13,32.13,0,0,0,59,83.36a31.43,31.43,0,0,0,10.26-9.1,47.41,47.41,0,0,0,2.89-4.65Z"/><path class="cls-3" d="M49,86.86a30.08,30.08,0,0,1-7.64.4,31,31,0,0,1-5.5-.86A31.56,31.56,0,0,1,23.9,80.49L14,72.66l-3.69-2.92a.89.89,0,0,0-.52-.28c-.12-.23-.24-.45-.34-.68A1.71,1.71,0,0,1,10,66.69a28.23,28.23,0,0,1,3.86-2.63,30.1,30.1,0,0,1,6.58-2.74,2.89,2.89,0,0,1,1.37,0c.67.14.84,0,.87-.64.05-1,.07-1.94.11-2.91.07-2.06.12-4.12.22-6.18.09-1.77.13-3.54.2-5.31.11-2.71.24-5.41.32-8.12,0-1.75.12-3.51.2-5.26l.21-5.62c0-1.67.19-3.34.18-5a4.91,4.91,0,0,0,.86.08c2.27,0,4.54,0,6.82,0-.09.22-.29.37-.31.63-.17,2.08-.35,4.15-.39,6.23A55.26,55.26,0,0,0,31.43,36a46.3,46.3,0,0,0,.9,5.22,30.44,30.44,0,0,0,1.2,4.09,37.73,37.73,0,0,0,2.2,5,5.19,5.19,0,0,1,.93,3c-.2,2.71-.12,5.45-.17,8.18,0,.37.12.46.47.47,1,0,1.9-.16,2.85-.24,1.14-.1,2.27-.26,3.39-.45,1.9-.32,3.75-.85,5.62-1.32,0,.21,0,.41,0,.62V84.78a7.57,7.57,0,0,1-.07,1.84C48.72,86.77,48.85,86.81,49,86.86Z"/><path class="cls-4" d="M49,86.86c-.13,0-.26-.09-.21-.28a7.63,7.63,0,0,0,.06-1.85V60.51c0-.2,0-.41,0-.61a32.74,32.74,0,0,0,5.89-2.72,21.26,21.26,0,0,0,6.56-6.07,27.15,27.15,0,0,0,3.86-9,46.5,46.5,0,0,0,1.13-9.47A68,68,0,0,0,66,25.18a7.07,7.07,0,0,0-.39-2.81h6.89a3.55,3.55,0,0,0,.92-.09c-.07,1.58.08,3.16.12,4.75s.13,3.48.2,5.21.12,3.47.2,5.21.14,3.77.22,5.66.12,3.54.2,5.31.15,3.64.21,5.46c0,1.58.13,3.16.2,4.73.08,2,.18,4,.19,5.93L72.11,69.6a48.23,48.23,0,0,1-2.9,4.65A31.46,31.46,0,0,1,59,83.36a32.31,32.31,0,0,1-9.38,3.42C49.39,86.82,49.19,86.83,49,86.86Z"/><path class="cls-3" d="M26.16,13.2a10.65,10.65,0,0,1,1.26-2.44,20.16,20.16,0,0,1,2.91-3.67,23.54,23.54,0,0,1,9-5.59A26.54,26.54,0,0,1,48.84,0V13.22l-.36,0H27.18C26.84,13.24,26.5,13.21,26.16,13.2Z"/><path class="cls-4" d="M48.84,13.22V0c.7,0,1.41,0,2.11,0s1.65.18,2.47.29a25.51,25.51,0,0,1,4.21,1,22,22,0,0,1,4.31,1.82,17.68,17.68,0,0,1,4,2.78,9.15,9.15,0,0,0,.86.79,14,14,0,0,1,2.28,2.53,37,37,0,0,1,2.07,3.19,1.38,1.38,0,0,1,.18.79,3.42,3.42,0,0,1-.45,0H49.3Z"/><path class="cls-5" d="M73.46,22.27a3.52,3.52,0,0,1-.91.09H32.19a3,3,0,0,0-.41,0c-2.28,0-4.55,0-6.81,0a3.53,3.53,0,0,1-.86-.08A1.84,1.84,0,0,1,23,19.87a1.91,1.91,0,0,1,1.39-1.15H48.59a1,1,0,0,0,.25,0c.14,0,.27,0,.41,0H72.59l.45,0a2,2,0,0,1,1.45,1A1.84,1.84,0,0,1,73.46,22.27Z"/><path class="cls-5" d="M48.84,13.22l.46,0H70.86c.15,0,.3,0,.45,0,.48,0,1,0,1.43,0A1.81,1.81,0,1,1,73,16.86H49.19l-.35,0H24.72a1.82,1.82,0,0,1-.54-3.56,3.79,3.79,0,0,1,1-.07l1,0c.33,0,.68,0,1,0h21.3Z"/><path class="cls-3" d="M24.72,16.87H48.84V18.7l-.24,0H24.41A10.73,10.73,0,0,0,24.72,16.87Z"/><path class="cls-4" d="M48.84,18.7V16.88l.36,0H72.85v.09c0,.6.24,1.16.19,1.75l-.45,0H49.25A2.88,2.88,0,0,1,48.84,18.7Z"/><path class="cls-3" d="M72.85,17v-.08H73Z"/><path class="cls-6" d="M31.78,22.39l.41,0H65.65A6.9,6.9,0,0,1,66,25.18a68,68,0,0,1,.22,7.42,46.42,46.42,0,0,1-1.13,9.47,27,27,0,0,1-3.86,9,21.42,21.42,0,0,1-6.56,6.08,32.39,32.39,0,0,1-5.89,2.71c-1.86.49-3.71,1-5.61,1.32-1.13.18-2.25.35-3.39.45-1,.08-1.89.24-2.85.24-.35,0-.48-.1-.48-.46.06-2.74,0-5.48.18-8.19a5.26,5.26,0,0,0-.93-3,36.47,36.47,0,0,1-2.2-5,30.48,30.48,0,0,1-1.21-4.09,48.21,48.21,0,0,1-.89-5.22,55.26,55.26,0,0,1-.35-6.68c0-2.08.22-4.15.39-6.22C31.5,22.76,31.7,22.61,31.78,22.39Z"/></g></g></svg>